<svg xmlns="http://www.w3.org/2000/svg" width="30.849" height="22.035" viewBox="0 0 30.849 22.035">
  <path id="Icon_metro-youtube-play" data-name="Icon metro-youtube-play" d="M24.605,17.628a.991.991,0,0,0-.516-.93l-8.814-5.509a1.038,1.038,0,0,0-1.119-.034,1.026,1.026,0,0,0-.568.964V23.136a1.026,1.026,0,0,0,.568.964,1.191,1.191,0,0,0,.534.138.981.981,0,0,0,.585-.172l8.814-5.509a.991.991,0,0,0,.516-.93Zm8.814,0q0,1.653-.017,2.582t-.146,2.35a19.042,19.042,0,0,1-.387,2.539,4.027,4.027,0,0,1-1.188,2.117,3.63,3.63,0,0,1-2.135,1,112.859,112.859,0,0,1-11.551.43,112.859,112.859,0,0,1-11.551-.43,3.669,3.669,0,0,1-2.143-1A4,4,0,0,1,3.1,25.1a21.309,21.309,0,0,1-.37-2.539q-.129-1.42-.146-2.35t-.017-2.582q0-1.653.017-2.582t.146-2.35a19.042,19.042,0,0,1,.387-2.539A4.027,4.027,0,0,1,4.309,8.039a3.63,3.63,0,0,1,2.135-1,112.86,112.86,0,0,1,11.551-.43,112.858,112.858,0,0,1,11.551.43,3.669,3.669,0,0,1,2.143,1,4,4,0,0,1,1.2,2.117,21.309,21.309,0,0,1,.37,2.539q.129,1.42.146,2.35T33.419,17.628Z" transform="translate(-2.571 -6.61)" fill="#fff"/>
</svg>
